<svg width="186" height="186" viewBox="0 0 186 186" fill="none" xmlns="http://www.w3.org/2000/svg">
<path d="M76.707 9.23761C86.6079 3.52136 98.8062 3.52135 108.707 9.2376L156.994 37.1159C166.895 42.8322 172.994 53.3962 172.994 64.8287V120.585C172.994 132.018 166.895 142.582 156.994 148.298L108.707 176.176C98.8062 181.893 86.6079 181.893 76.707 176.176L28.4204 148.298C18.5196 142.582 12.4204 132.018 12.4204 120.585V64.8287C12.4204 53.3962 18.5196 42.8322 28.4204 37.1159L76.707 9.23761Z" fill="#06B75E"/>
<path d="M104.95 97.8999C102.216 95.1662 102.216 90.7341 104.95 88.0004L126 66.9498C128.734 64.2161 133.166 64.2161 135.9 66.9498L156.951 88.0004C159.684 90.7341 159.684 95.1662 156.951 97.8999L135.9 118.951C133.166 121.684 128.734 121.684 126 118.951L104.95 97.8999Z" fill="white"/>
<path d="M28.9497 96.8999C26.2161 94.1662 26.2161 89.7341 28.9497 87.0004L50.0004 65.9498C52.7341 63.2161 57.1662 63.2161 59.8999 65.9498L80.9505 87.0004C83.6842 89.7341 83.6842 94.1662 80.9505 96.8999L59.8999 117.951C57.1662 120.684 52.734 120.684 50.0004 117.951L28.9497 96.8999Z" fill="white"/>
<path d="M66.9497 134.9C64.2161 132.166 64.2161 127.734 66.9497 125L88.0004 103.95C90.7341 101.216 95.1662 101.216 97.8999 103.95L118.951 125C121.684 127.734 121.684 132.166 118.951 134.9L97.8999 155.951C95.1662 158.684 90.734 158.684 88.0004 155.951L66.9497 134.9Z" fill="white"/>
<path d="M66.9497 58.8999C64.2161 56.1662 64.2161 51.7341 66.9497 49.0004L88.0004 27.9498C90.7341 25.2161 95.1662 25.2161 97.8999 27.9498L118.951 49.0004C121.684 51.7341 121.684 56.1662 118.951 58.8999L97.8999 79.9505C95.1662 82.6842 90.734 82.6842 88.0004 79.9505L66.9497 58.8999Z" fill="white"/>
</svg>
