<svg width="161" height="177" viewBox="0 0 161 177" fill="none" xmlns="http://www.w3.org/2000/svg">
<path fill-rule="evenodd" clip-rule="evenodd" d="M64.707 5.2376C74.6079 -0.478652 86.8062 -0.478654 96.707 5.23759L144.994 33.1159C154.895 38.8322 160.994 49.3962 160.994 60.8287V116.585C160.994 128.018 154.895 138.582 144.994 144.298L96.707 172.176C86.8062 177.893 74.6079 177.893 64.707 172.176L16.4204 144.298C6.51955 138.582 0.42038 128.018 0.42038 116.585V60.8287C0.42038 49.3962 6.51955 38.8322 16.4204 33.1159L64.707 5.2376ZM92.9497 93.8999C90.2161 91.1662 90.2161 86.734 92.9497 84.0004L114 62.9497C116.734 60.2161 121.166 60.2161 123.9 62.9497L144.951 84.0004C147.684 86.734 147.684 91.1662 144.95 93.8999L123.9 114.951C121.166 117.684 116.734 117.684 114 114.951L92.9497 93.8999ZM16.9497 83.0004C14.2161 85.734 14.2161 90.1662 16.9497 92.8999L38.0004 113.951C40.734 116.684 45.1662 116.684 47.8999 113.951L68.9505 92.8999C71.6842 90.1662 71.6842 85.734 68.9505 83.0004L47.8999 61.9497C45.1662 59.2161 40.734 59.2161 38.0004 61.9497L16.9497 83.0004ZM54.9497 130.9C52.2161 128.166 52.2161 123.734 54.9497 121L76.0004 99.9497C78.734 97.2161 83.1662 97.2161 85.8999 99.9497L106.951 121C109.684 123.734 109.684 128.166 106.95 130.9L85.8999 151.951C83.1662 154.684 78.734 154.684 76.0004 151.95L54.9497 130.9ZM54.9497 45.0004C52.2161 47.734 52.2161 52.1662 54.9497 54.8999L76.0004 75.9505C78.734 78.6842 83.1662 78.6842 85.8999 75.9505L106.95 54.8999C109.684 52.1662 109.684 47.734 106.951 45.0004L85.8999 23.9497C83.1662 21.2161 78.734 21.2161 76.0004 23.9497L54.9497 45.0004Z" fill="white"/>
</svg>
